<?xml version="1.0" encoding="utf-8"?>
<!-- Generator: Adobe Illustrator 26.0.2, SVG Export Plug-In . SVG Version: 6.00 Build 0)  -->
<svg version="1.1" id="Layer_1" xmlns="http://www.w3.org/2000/svg" xmlns:xlink="http://www.w3.org/1999/xlink" x="0px" y="0px"
	 viewBox="0 0 3000 1929.1" style="enable-background:new 0 0 3000 1929.1;" xml:space="preserve">
<style type="text/css">
	.st0{fill:#6F162C;}
	.st1{fill:#EFB52F;}
	.st2{fill:#FFFFFF;}
	.st3{fill:#EFB730;}
	.st4{fill:#FCFDFD;}
	.st5{fill:#EEB42E;}
	.st6{fill:#FCFCFC;}
	.st7{fill:none;}
</style>
<rect x="-72.4" y="-45.3" width="3122.7" height="2054"/>
<g>
	<g>
		<path class="st0" d="M214.5,493c-14.3,176-35.1,917.6,605.2,1120.5c0,0,165.9-52.2,344.8-220.5c0,0,209,21.7,220.1-70.4
			c0,0,32.8-11.1,29.6-83.1c0,0-2.8-66.1-7.3-89.6c0,0,1.5-37.9-48.8-76.5c0,0,84.3-302.4,61.2-573.3c-2.3-26.9-20.7-49.7-46.5-57.7
			L882.2,289.5c-48.9-15.2-101.2-15-149.9,0.6L253.2,443.9C231.6,451,216.4,470.3,214.5,493z"/>
		<path class="st1" d="M754.9,830.7l17.6-55.7l-28.9-70.6c0,0,14.1-33.2,14.8-34.2c0.7-1.1,70.9-1.1,70.9-1.1l93.1-12.7l59.6,9.9
			l3.5-49c0,0-40.2,4.6-33.2-43.4c0,0,3.5-67.4,15.2-8.1c0,0-3.5,29.3,18,27.5l3.2-80.8c0,0,2.8-24,20.8-20.1
			c0,0,14.7,1.4,17.3,23.3v55l109.4-145.3l-130.9-54L898.1,595.7l-61-16.9l29.6-250.1c0,0-59.5-14.9-121.7,0l28.6,250.8
			c0,0-51.2,11.6-68.8,18.7L596.7,372.3l-127.9,56.9l164,214.8l-58.2,71.6c0,0,77.6,39.2,92.8,121.4L754.9,830.7z"/>
		<path class="st1" d="M277.1,959.7c-33.2-149.6-31.3-333.9-31.3-333.9L465.6,692c0,0-187.3,61.2-138.6,253.8L277.1,959.7z"/>
		<path class="st1" d="M1047.5,710.4l331.8-86.3c0,0,16.4,109-10.1,242.3l-64-10.8l2.9-67.3c0,0,28.5,1.2,30.8-20.5l1.6-22.6
			c0.3-3.7-0.1-7.4-1.3-10.8c-1.5-4.4-4.4-8.7-9.6-6.3c-3.3,1.5-5.4,4.7-5.8,8.3l-2,19.1c0,0-0.7,10.7-13.6,8.6l-0.2-52.7
			c0,0,0.4-26.6-22.9-25.8c0,0-18.3,3.7-17.5,25.4l-1.1,62.3c0,0-12.5,3.5-12-15.7l0.4-21.2c0,0,0.2-11.7-11.2-9.1
			c0,0-7.9,1.9-7.5,19.7l0.4,30.4c0,0-0.8,19,30.3,20.6l-1.8,42.2l-81.8-82L1047.5,710.4z"/>
		<path class="st2" d="M1246,514.7l-15.1,37.3c-0.6,1.4-1.7,2.5-3,3l-37.1,14.9l37.2,13.7c1.4,0.5,2.6,1.6,3.2,3l14.9,35.5L1260,587
			c0.6-1.4,1.7-2.6,3.1-3.1l37-14.1l-37.2-15.7c-1.4-0.6-2.5-1.7-3-3.1L1246,514.7z"/>
		<path class="st2" d="M700.7,389l-9.2,22.7c-0.3,0.8-1,1.5-1.8,1.8l-22.5,9l22.6,8.3c0.9,0.3,1.6,1,1.9,1.8l9.1,21.6l8.5-21.4
			c0.3-0.9,1-1.6,1.9-1.9l22.5-8.6l-22.6-9.5c-0.8-0.4-1.5-1-1.8-1.9L700.7,389z"/>
		<path class="st2" d="M376.4,516.8l-15.3,37.8c-0.6,1.4-1.7,2.5-3.1,3.1l-37.6,15.1l37.6,13.8c1.4,0.5,2.6,1.6,3.2,3.1l15.1,36
			l14.1-35.7c0.6-1.4,1.7-2.6,3.2-3.1l37.5-14.3l-37.7-15.9c-1.4-0.6-2.5-1.7-3-3.1L376.4,516.8z"/>
		<path class="st2" d="M545.9,590.9l-5.1,12.5c-0.2,0.5-0.6,0.8-1,1l-12.4,5l12.4,4.6c0.5,0.2,0.9,0.5,1.1,1l5,11.9l4.7-11.8
			c0.2-0.5,0.6-0.9,1-1l12.4-4.7l-12.4-5.2c-0.5-0.2-0.8-0.6-1-1L545.9,590.9z"/>
		<path class="st3" d="M685.6,1107.8l-340.8,34.4l21.2,47.6l305.3-29.1C671.3,1160.7,678.7,1124.2,685.6,1107.8z"/>
		<path class="st4" d="M668.3,1189.8c0,0-0.9,16.9,0,21.3l-297.6-12.5l-4.8-8.8H668.3z"/>
		<path class="st5" d="M614.7,1310.1c0,0-154-14.1-190-21.9c0,0,96.8,168.3,347.1,281.5c0,0-133.9-86.3-196.8-242.9l36.6,0.2
			L614.7,1310.1z"/>
		<path class="st6" d="M1123.2,1305.5c0,0-8.5,36.3-16.9,46.2h159.4c0,0-18.3-28.6-16.6-46.2H1123.2z"/>
		<path class="st6" d="M979.7,1309c0,0,7.5,29.3,20.7,38.5l-216.4-5.3l1.1-2.5c2.7-6.4,4.5-13.3,5.1-20.2l0.3-3L979.7,1309z"/>
		<path class="st6" d="M700.9,1313.6l9.2,31.5h-66.7c-6.8,0-13.3-2.7-17.9-7.6c-4.8-5.2-6.9-12.2,5.6-19c3.4-1.8,7.2-2.8,11-3
			L700.9,1313.6z"/>
		<g>
			<path class="st6" d="M747.3,1345.2c-15.1,0-23-23.4-23-46.6c0-23.1,7.9-46.6,23-46.6c15.1,0,23,23.4,23,46.6
				C770.4,1321.8,762.5,1345.2,747.3,1345.2z M747.3,1264.6c-3.1,0-10.6,11.9-10.6,34.1c0,22.2,7.5,34.1,10.6,34.1
				c3.1,0,10.6-11.9,10.6-34.1C757.9,1276.5,750.4,1264.6,747.3,1264.6z"/>
		</g>
		<g>
			<path class="st6" d="M1040.5,1330.4c-9.6,0-18.3-6.3-24.4-17.8c-5.4-10.1-8.4-23.4-8.4-37.3c0-14,3-27.3,8.4-37.3
				c6.2-11.5,14.8-17.8,24.4-17.8c9.6,0,18.3,6.3,24.4,17.8c5.4,10.1,8.4,23.4,8.4,37.3c0,14-3,27.3-8.4,37.3
				C1058.7,1324.1,1050.1,1330.4,1040.5,1330.4z M1040.5,1234.2c-8.9,0-18.8,17.6-18.8,41.1c0,23.5,9.9,41.1,18.8,41.1
				c8.9,0,18.8-17.6,18.8-41.1C1059.3,1251.8,1049.3,1234.2,1040.5,1234.2z"/>
		</g>
		<ellipse class="st1" cx="919.3" cy="443.5" rx="9.3" ry="10.8"/>
		<circle class="st1" cx="1120.2" cy="594.7" r="7.6"/>
		<g>
			<path class="st4" d="M493.4,1068.5c-50.9,0-98.8-20.2-134.8-56.7c-35.9-36.5-55.7-85.1-55.7-136.7s19.8-100.2,55.7-136.7
				c36-36.6,83.9-56.7,134.8-56.7c50.9,0,98.8,20.2,134.8,56.7c35.9,36.5,55.7,85.1,55.7,136.7s-19.8,100.2-55.7,136.7
				C592.2,1048.3,544.3,1068.5,493.4,1068.5z M493.4,707.3c-90.9,0-164.9,75.3-164.9,167.8s74,167.8,164.9,167.8
				c90.9,0,164.8-75.3,164.8-167.8S584.3,707.3,493.4,707.3z"/>
		</g>
		<ellipse class="st4" cx="493.4" cy="875.1" rx="146.2" ry="148"/>
		<circle class="st1" cx="513.8" cy="781.9" r="24.5"/>
		<circle class="st1" cx="585.5" cy="847.8" r="24.5"/>
		<circle class="st1" cx="534.5" cy="842.2" r="16.9"/>
		<path class="st1" d="M617.3,913.4c-10.4,43.7-37.3,67.5-62.9,80.5c-33.9,17.2-73.5,18.9-109.3,6c-70.9-25.5-78.9-92.8-78.9-92.8
			s30.9-6.9,51.7-29.3c0,0,25.8-33.9,61.6-16.6c0,0,18.2,11.2,37.4,26.2c0,0,20.5,18.6,47.7,4.5c4.8-2.5,9.9-4.3,15.3-4.8
			c6.8-0.7,15.7,0,24.5,5.5l6.4,4.3C616.2,900.5,618.8,907,617.3,913.4z"/>
		<g>
			<path class="st2" d="M1316.8,1013.7c-107.9-150.6-206.7-142.2-206.7-142.2c1.8-29.6-16.6-54-16.6-54c6.7-52.9-46-51-46-51
				L1033,750c29.3-8.9,11.1-24.7,11.1-24.7c-6.6-5.8-7.1-24.3-7.1-24.3c-7.5-48.7-42.2-31.9-42.2-31.9
				c-26.1-58.2-80.4-20.5-80.4-20.5c-61.7-19.8-87.8,9.9-87.8,9.9l-44.8-18c-26.8-8.1-46.6,26.8-46.6,26.8
				c-34.6-28.9-54.3-14.1-54.3-14.1c13.8,8.5,16.2,28.3,16.2,28.3c-18.7-6.6-43.4,6.9-43.4,6.9c29.6,45.9,80.4,40.9,80.4,40.9
				c1.1,26.8,24.3,43.7,24.3,43.7c-14.8,24-17.6,90-17.6,90c-24.7,56.1,19.4,77.3,19.4,77.3c-20.9,9.2-27.8,29.6-27.8,29.6l230-65.6
				l212.1,14.1l113.4,117.4c32.5,11.5,70.2,37.5,70.2,37.5l8.7-34.2L1316.8,1013.7z M768.5,685c21.8-11,42.7-1.8,52,3.7
				c3.4,2,7.6,2.1,11,0.2l18.8-10.2c15.8-10.4,26.4-4.1,26.4-4.1c2.1,1.6,4.1,2.8,5.9,3.6c4.8,2.1,10.2,2,15-0.1
				c4.6-2,8.5-2.5,11.3-2.5c1.8,0,3.6,0.4,5.4,1c9.4,3,18.5-5.5,18.5-5.5c0.6-0.6,1.1-1.1,1.7-1.5c8.6-7.5,22-4,26.3,6.6
				c6.9,17.1-0.2,31.7-0.2,31.7c-14.9-4.7-13.5-23.5-13.5-23.5c-7.9-0.1-18.4,10.4-22.8,15.2c-1.4,1.5-3.5,2-5.4,1.3l-8.9-3.2
				c-2.4-0.9-5.1-0.7-7.4,0.4l-13.8,6.7c-1.3,0.6-2.8,0.5-4-0.2c-15-9.2-24-4.4-25.9-3.1c-0.7,0.5-1.5,0.9-2.3,1.3
				c-8.8,4.3-25.9,8.1-25.9,8.1c-9.7,12.1-26.6,24.5-34.2,29.8c-2.7,1.9-6.3,2.2-9.3,0.7c-13.5-6.6-22.1-23-22.1-23
				C752.1,691.1,768.5,685,768.5,685z M1073.1,870c0,0-1.6,6.9-28.9,6.3l-83.6-1.9l-172.9,54c0,0-27.5,2.5-33.2-29.2
				c0,0-3.8-16.3,15.5-36.9L772,812c0,0,4.3-46.4,53.8-74c6.8-3.8,14.4-6.1,22.2-6.7l35.5-2.9c4.5-0.4,8.9-1.4,13.1-3.1
				c14.9-5.9,56.9-18,93.7,11.8c0,0,36,18.1,47.3,79.3c1.4,7.4,6,13.8,12.7,17.3l9.9,5.3C1060.2,839,1085.8,848.1,1073.1,870z"/>
		</g>
		<path class="st1" d="M941.5,740.9c0,0,63,8.8,67.7,70c0,0,5.3,38.1-30.2,26.1C979.1,837,995.3,792,941.5,740.9z"/>
		<path class="st1" d="M905.5,745.3c0,0,60.9,5.3,65.4,88.5c0,0-39.5-4.2-58.1,10.6c0,0-1.2-33.9-22.1-50.6c0,0-13.9-16-4.5-46.1
			c0,0,32,26.8,31.3,64.7C917.5,812.4,928.8,777.4,905.5,745.3z"/>
		<path class="st1" d="M866.2,760l-1.2,62.1C865.1,822.1,852.1,788.7,866.2,760z"/>
		<path class="st1" d="M837.8,773.2c0,0-11.3,40-9.2,74.1C828.6,847.2,817.8,812,837.8,773.2z"/>
		<path class="st4" d="M1132.6,1148.7c10.7,1.2,39,3.7,48.8,2.1c11.1-1.8,12.4-4.5,12.4-4.6c0-0.1,0.2-7-26.8-23.5
			c-15.2-9.3-30.9-16.7-31.1-16.7l-0.4-0.2c-5.8-3.2-16.2-6.6-20.2-4c-2.1,1.4-2.8,5.9-2,12.2l0.1,0.5l0,0.5
			C1113.3,1116.2,1112.8,1143.4,1132.6,1148.7z"/>
		<path class="st4" d="M1136.9,968.1c0,0,26.3,19.1,46.6,40.1c2.2,2.3,4.3,4.8,6.3,7.4c5.1,6.7,19,23.4,36.8,28.6
			C1226.5,1044.1,1165,974.1,1136.9,968.1z"/>
		<g>
			<path class="st7" d="M1338.5,1169h-91.2c-10,0-18.1,8.1-18.1,18.1c0,10,8.1,18.1,18.1,18.1h91.2c10,0,18.1-8.1,18.1-18.1
				C1356.6,1177.1,1348.5,1169,1338.5,1169z"/>
			<path class="st7" d="M1237.1,1143.9c0,3.2,2.6,5.8,5.8,5.8h104.4c3.2,0,5.8-2.6,5.8-5.8c0-3.2-2.6-5.8-5.8-5.8h-104.4
				C1239.7,1138.2,1237.1,1140.7,1237.1,1143.9z"/>
			<path class="st7" d="M758.9,1138.1l-17.7,1.3c-3.9,0.3-6.9,3.7-6.6,7.6v0c0.3,3.9,3.7,6.9,7.6,6.6l17.7-1.3
				c3.9-0.3,6.9-3.7,6.6-7.6C766.2,1140.8,762.8,1137.8,758.9,1138.1z"/>
			<path class="st7" d="M926.6,1114.5l-24.6,1.8c-5,0.4-8.7,4.7-8.4,9.7c0.4,5,4.7,8.7,9.7,8.4l24.6-1.8c5-0.4,8.7-4.7,8.4-9.7
				C935.9,1117.9,931.6,1114.1,926.6,1114.5z"/>
			<path class="st7" d="M1129.9,1160.9l0.4,0.1l0.4,0c3.1,0.3,25.2,2.7,41.2,2.7c4.5,0,8.5-0.2,11.5-0.7c5.2-0.8,21.1-3.4,22.7-15.2
				c1.4-10.1-8.7-21.2-32.8-35.9c-15.1-9.2-30.1-16.4-32-17.3c-2.9-1.6-21.5-11.1-33-3.3c-6.3,4.3-8.8,12.2-7.4,23.6
				c0,2.2,0.1,10.3,2.9,19.2C1108.3,1148.6,1117.3,1157.8,1129.9,1160.9z"/>
			<path class="st4" d="M1355.8,1240l35.8,1.2c1.5-24.2,0.9-58.5-7.6-100.5c-3.7-18.5-14.3-35-29.8-45.9
				c-17.3-12.2-39.3-24-73.8-40.7c-3.4-1.6-6.4-3.9-8.8-6.8c-14.7-16.8-69.4-78.8-99.4-104.2c-2.9-2.5-6.5-4-10.4-4.4
				c-28.6-2.8-156.6-15-198.6-14.6c-1.6,0-3.2,0.3-4.7,0.7L741.8,986c-6.1,1.7-10.8,6.7-12.3,12.9l-33.7,145.8l-2,100.8l-217.7,12
				c0,0,59.6,12,226.8,18.7c0,0,4.1-56.8,43.2-59.6c0,0,33.9-0.5,41.8,64c0,0,120.3-10.4,183.4-21.7c0,0,1.2-83.1,66.8-86.8
				c10.4-0.6,20.6,2.5,28.9,8.9c10.3,8.1,23.6,23,31.7,49.7l13.4,0.6L1355.8,1240z M1356.6,1187.1c0,10-8.1,18.1-18.1,18.1h-91.2
				c-10,0-18.1-8.1-18.1-18.1c0-10,8.1-18.1,18.1-18.1h91.2C1348.5,1169,1356.6,1177.1,1356.6,1187.1z M1347.3,1138.2
				c3.2,0,5.8,2.6,5.8,5.8c0,3.2-2.6,5.8-5.8,5.8h-104.4c-3.2,0-5.8-2.6-5.8-5.8c0-3.2,2.6-5.8,5.8-5.8H1347.3z M759.9,1152.3
				l-17.7,1.3c-3.9,0.3-7.3-2.7-7.6-6.6v0c-0.3-3.9,2.7-7.3,6.6-7.6l17.7-1.3c3.9-0.3,7.3,2.7,7.6,6.6
				C766.8,1148.6,763.8,1152,759.9,1152.3z M866.2,1079.9c-0.1,3-2.4,5.5-5.3,5.9l-111.6,17.3c-4,0.6-7.5-2.8-7-6.8l10.8-90.9
				c0.3-2.4,2.1-4.4,4.5-5l108.2-24.9c2.6-0.6,5,1.4,4.9,4.1L866.2,1079.9z M927.9,1132.5l-24.6,1.8c-5,0.4-9.3-3.4-9.7-8.4
				c-0.4-5,3.4-9.3,8.4-9.7l24.6-1.8c5-0.4,9.3,3.4,9.7,8.4C936.6,1127.8,932.9,1132.2,927.9,1132.5z M1025.4,1061.7l-111.1,15.1
				c-4.6,0.6-8.7-2.9-8.8-7.5l-2.5-97.6c-0.1-2.4,1.6-4.5,3.9-5.1l42.9-9.7c2.1-0.5,4.2,0.3,5.5,2l73.8,93.4
				C1032,1055.8,1029.9,1061.1,1025.4,1061.7z M1072.4,1048.3L998.9,955c-2.5-3.1-0.1-7.7,3.9-7.6l155.5,6.9c2.5,0.1,4.8,1.2,6.6,3
				l88.4,93.1c1.9,2,0.5,5.3-2.3,5.3l-167.5-2C1079.1,1053.6,1075.1,1051.7,1072.4,1048.3z M1100.9,1115.2
				c-1.4-11.4,1.1-19.3,7.4-23.6c11.5-7.8,30.1,1.7,33,3.3c1.9,0.9,17,8.1,32,17.3c24.1,14.7,34.2,25.8,32.8,35.9
				c-1.6,11.7-17.5,14.3-22.7,15.2c-3,0.5-7,0.7-11.5,0.7c-16,0-38.1-2.4-41.2-2.7l-0.4,0l-0.4-0.1c-12.6-3.1-21.6-12.3-26.1-26.6
				C1101,1125.5,1100.9,1117.3,1100.9,1115.2z"/>
			<path class="st4" d="M1355.8,1240c3,0.1,5.1,2.9,4.4,5.8c-0.5,2.1-2.4,3.5-4.6,3.5l-205.1-1.5c-2.5,0-4.4,2.1-4.2,4.6v0
				c0.2,2.1,2,3.7,4.1,3.7l200.5,2.4c3.3,0,5.7,3,5.1,6.2l-0.6,3.3c-0.5,2.5-2.6,4.3-5.2,4.3h-230.1c-2.6,0-4.9-1.9-5.3-4.5
				l-5.8-32.9c-0.3-1.9,1.2-3.7,3.1-3.6l-13.4-0.6c3.5,11.6,6.1,25.4,7.1,41.8c0.3,4.5,4,8.1,8.5,8.1l254.9,1.1
				c10,0,18.4-7.2,19.9-17.1c0.9-6.2,1.9-14.1,2.5-23.4L1355.8,1240z"/>
		</g>
	</g>
	<g>
		<path class="st2" d="M1522.3,939.5h50.6V1104h77.3v49.6h-127.9V939.5z"/>
		<path class="st2" d="M1725.5,938.2h51.2l69.4,215.4h-53.1l-11.5-38.5h-61.8l-11.2,38.5h-52L1725.5,938.2z M1768.8,1071l-18.3-62.7
			l-18.3,62.7H1768.8z"/>
		<path class="st2" d="M1853.6,1068.9V939.5h50.9v130c0,25.7,11.5,37.9,28.9,37.9c17.7,0,28.9-11.6,28.9-37V939.5h51.2v128.5
			c0,62.1-32.3,89.3-80.4,89.3S1853.6,1129.7,1853.6,1068.9z"/>
		<path class="st2" d="M2040.8,939.5h47.5l65.5,107.7V939.5h49.7v214.2h-45l-68-112.3v112.3h-49.7V939.5z"/>
		<path class="st2" d="M2232.5,939.5h64.6c63.2,0,99.2,41.6,99.2,104.6v3.7c0,63-36.3,105.9-100.1,105.9h-63.8V939.5z M2283.1,988.7
			v115.6h14.6c28.1,0,46.9-18.1,46.9-56.3v-2.8c0-38.5-18.8-56.6-46.9-56.6H2283.1z"/>
		<path class="st2" d="M2420,939.5h77.3c26.4,0,46.4,7.6,59,21.7c11,11.9,17.1,28.5,17.1,50.2v1.5c0,31.8-14.3,51.7-35.1,63
			l40.5,77.7h-57.1l-33.4-66.4h-18v66.4H2420V939.5z M2495.3,1043.5c17.1,0,27.3-10.7,27.3-27.8v-0.6c0-18.4-10.7-27.5-27.5-27.5
			h-24.7v56H2495.3z"/>
		<path class="st2" d="M2637.2,1073.5l-63.2-134h55.9l32.9,77.4l33.2-77.4h55.1l-63.2,133.4v80.8h-50.6V1073.5z"/>
	</g>
	<g>
		<path class="st2" d="M1748.8,840.8l-18.3-61.6h-104l-18,61.6H1545L1649.2,503h60.3l104.2,337.8H1748.8z M1644.2,714.3h68.8
			l-34.2-119.6L1644.2,714.3z"/>
		<polygon class="st2" points="1841.3,840.8 1841.3,777.5 1971.3,576.9 1845.6,576.9 1845.6,505.5 2054.4,505.5 2054.4,568.9 
			1924.3,769.4 2054.4,769.4 2054.4,840.8 		"/>
	</g>
	<g>
		<path class="st2" d="M1548.2,1265.3c0.8,1.8,2.4,3.5,4.6,5.1c2.2,1.6,5.3,3,9.3,4.4c3.9,1.3,9,2.7,15,4.2
			c6.7,1.7,12.6,3.6,17.8,5.6c5.2,2.1,9.4,4.6,12.8,7.5c3.4,3,6,6.4,7.7,10.4c1.8,3.9,2.6,8.6,2.6,13.9c0,6.1-1.1,11.4-3.3,16.2
			c-2.2,4.7-5.3,8.7-9.3,12c-4,3.3-8.7,5.8-14.3,7.4c-5.6,1.7-11.7,2.5-18.3,2.5c-9.8,0-19.2-1.7-28.2-5c-9-3.3-17.3-8.4-24.9-15.3
			l13.4-16c6.2,5.3,12.4,9.4,18.7,12.3c6.3,2.8,13.4,4.3,21.4,4.3c6.9,0,12.4-1.5,16.4-4.4c4.1-2.9,6.1-6.8,6.1-11.8
			c0-2.3-0.4-4.4-1.2-6.2c-0.8-1.8-2.2-3.5-4.4-5c-2.1-1.5-5-2.9-8.7-4.3c-3.7-1.3-8.5-2.7-14.5-4.2c-6.8-1.6-12.8-3.3-18.1-5.3
			c-5.3-1.9-9.7-4.4-13.3-7.3c-3.6-2.9-6.3-6.4-8.2-10.5c-1.9-4.1-2.8-9.1-2.8-15.1c0-5.6,1.1-10.6,3.2-15.2
			c2.2-4.5,5.1-8.4,8.9-11.7c3.8-3.3,8.3-5.8,13.6-7.5c5.3-1.8,11.1-2.6,17.4-2.6c9.3,0,17.7,1.4,25.2,4.1c7.4,2.7,14.4,6.7,21,11.9
			l-12,16.9c-5.8-4.2-11.6-7.5-17.3-9.7c-5.7-2.2-11.4-3.4-17.3-3.4c-6.5,0-11.6,1.5-15.3,4.4c-3.6,3-5.4,6.6-5.4,10.8
			C1546.9,1261.3,1547.3,1263.5,1548.2,1265.3z"/>
		<path class="st2" d="M1771.2,1245.7h-71.9v32.7h63.7v20.2h-63.7v34h72.8v20.2h-95v-127.1h94.1V1245.7z"/>
		<path class="st2" d="M1913,1352.7l-31.3-44.3h-28.1v44.3h-22.2v-127.1h56.7c7.3,0,13.8,0.9,19.7,2.8c5.9,1.9,10.8,4.5,14.9,8
			c4.1,3.5,7.2,7.7,9.4,12.7c2.2,5,3.3,10.6,3.3,16.8c0,5.3-0.8,10.1-2.3,14.3c-1.5,4.2-3.6,7.9-6.3,11.1c-2.7,3.2-5.8,5.9-9.5,8.2
			c-3.7,2.2-7.8,4-12.3,5.2l34.3,48.1H1913z M1905.8,1251.1c-4.6-3.6-11.1-5.4-19.5-5.4h-32.6v42.9h32.8c8,0,14.4-1.9,19.1-5.8
			s7.1-9.1,7.1-15.7C1912.7,1260,1910.4,1254.7,1905.8,1251.1z"/>
		<path class="st2" d="M2082.1,1225.6h24.2l-52.9,128h-19.6l-52.9-128h24.7l38.3,97.7L2082.1,1225.6z"/>
		<path class="st2" d="M2184.2,1225.6v127.1H2162v-127.1H2184.2z"/>
		<path class="st2" d="M2351.4,1341.7c-3.6,2.7-7.4,5.1-11.5,7.1c-4.1,2-8.6,3.5-13.5,4.5c-4.9,1-10.3,1.5-16.3,1.5
			c-9.3,0-17.9-1.7-25.8-5.1c-7.9-3.4-14.7-8-20.4-13.9c-5.8-5.9-10.3-12.8-13.5-20.8c-3.3-8-4.9-16.6-4.9-25.8
			c0-9.1,1.6-17.6,4.8-25.6c3.2-8,7.7-15,13.5-21c5.8-6,12.7-10.7,20.7-14.2s16.8-5.2,26.5-5.2c5.8,0,11.1,0.5,15.9,1.5
			c4.8,1,9.2,2.3,13.2,4.1c4,1.8,7.7,3.8,11.1,6.3c3.4,2.4,6.6,5.1,9.6,8l-14.3,16.5c-5.1-4.7-10.5-8.5-16.2-11.4
			c-5.7-2.9-12.2-4.4-19.4-4.4c-6.1,0-11.7,1.2-16.8,3.5c-5.1,2.4-9.6,5.6-13.3,9.6c-3.8,4.1-6.7,8.8-8.7,14.3
			c-2.1,5.4-3.1,11.3-3.1,17.6c0,6.3,1,12.2,3.1,17.7c2.1,5.5,5,10.3,8.7,14.4c3.8,4.1,8.2,7.4,13.3,9.7c5.1,2.4,10.7,3.5,16.8,3.5
			c7.7,0,14.4-1.5,20-4.4c5.6-3,11.1-7,16.5-12.1l14.3,14.5C2358.4,1335.9,2355,1339,2351.4,1341.7z"/>
		<path class="st2" d="M2511.8,1245.7h-71.9v32.7h63.7v20.2h-63.7v34h72.8v20.2h-95v-127.1h94.1V1245.7z"/>
	</g>
	<g>
		<path class="st2" d="M1553,1469v-5.4c-1.5,1.8-3.4,3.3-5.7,4.5c-2.3,1.2-5.1,1.8-8.5,1.8c-2.1,0-4.1-0.3-6-0.9
			c-1.9-0.6-3.5-1.4-4.9-2.6c-1.4-1.1-2.5-2.5-3.4-4.2c-0.9-1.7-1.3-3.6-1.3-5.9v-0.2c0-2.4,0.4-4.5,1.3-6.2
			c0.9-1.8,2.1-3.2,3.7-4.4s3.5-2,5.6-2.6c2.2-0.6,4.6-0.9,7.1-0.9c2.7,0,4.9,0.2,6.8,0.5c1.9,0.3,3.6,0.8,5.4,1.3v-1.1
			c0-3-0.9-5.4-2.8-7c-1.9-1.6-4.5-2.4-8-2.4c-2.5,0-4.7,0.2-6.6,0.7c-1.9,0.5-3.9,1.2-5.9,2l-2.7-8.1c2.4-1.1,4.9-2,7.5-2.7
			c2.5-0.7,5.6-1,9.2-1c6.5,0,11.4,1.6,14.5,4.9c3.2,3.2,4.7,7.8,4.7,13.7v26H1553z M1553.2,1450.4c-1.3-0.5-2.8-0.9-4.5-1.2
			s-3.6-0.5-5.5-0.5c-3.2,0-5.6,0.6-7.4,1.8c-1.8,1.2-2.7,3-2.7,5.2v0.2c0,2.1,0.8,3.7,2.4,4.8c1.6,1.1,3.6,1.7,6,1.7
			c1.7,0,3.2-0.2,4.6-0.7c1.4-0.4,2.6-1.1,3.7-1.9c1.1-0.8,1.9-1.8,2.4-2.9c0.6-1.1,0.9-2.4,0.9-3.8V1450.4z"/>
		<path class="st2" d="M1607,1433.4v-8.2h37.2v6.9l-25.3,28.7h25.3v8.2h-38.1v-6.9l25.3-28.7H1607z"/>
		<path class="st2" d="M1688.3,1469v-60.6h10.1v60.6H1688.3z"/>
		<path class="st2" d="M1771.5,1469v-5.4c-1.5,1.8-3.4,3.3-5.7,4.5c-2.3,1.2-5.1,1.8-8.5,1.8c-2.1,0-4.1-0.3-6-0.9
			c-1.9-0.6-3.5-1.4-4.9-2.6c-1.4-1.1-2.5-2.5-3.4-4.2c-0.9-1.7-1.3-3.6-1.3-5.9v-0.2c0-2.4,0.4-4.5,1.3-6.2
			c0.9-1.8,2.1-3.2,3.7-4.4s3.5-2,5.6-2.6c2.2-0.6,4.6-0.9,7.1-0.9c2.7,0,4.9,0.2,6.8,0.5c1.9,0.3,3.6,0.8,5.4,1.3v-1.1
			c0-3-0.9-5.4-2.8-7c-1.9-1.6-4.5-2.4-8-2.4c-2.5,0-4.7,0.2-6.6,0.7c-1.9,0.5-3.9,1.2-5.9,2l-2.7-8.1c2.4-1.1,4.9-2,7.5-2.7
			c2.5-0.7,5.6-1,9.2-1c6.5,0,11.4,1.6,14.5,4.9c3.2,3.2,4.7,7.8,4.7,13.7v26H1771.5z M1771.8,1450.4c-1.3-0.5-2.8-0.9-4.5-1.2
			s-3.6-0.5-5.5-0.5c-3.2,0-5.6,0.6-7.4,1.8c-1.8,1.2-2.7,3-2.7,5.2v0.2c0,2.1,0.8,3.7,2.4,4.8c1.6,1.1,3.6,1.7,6,1.7
			c1.7,0,3.2-0.2,4.6-0.7c1.4-0.4,2.6-1.1,3.7-1.9c1.1-0.8,1.9-1.8,2.4-2.9c0.6-1.1,0.9-2.4,0.9-3.8V1450.4z"/>
		<path class="st2" d="M1855.3,1425.1h10.1v43.8h-10.1v-6.9c-1.4,2.1-3.2,4-5.4,5.5c-2.2,1.5-4.9,2.3-8.3,2.3c-5,0-8.8-1.5-11.5-4.6
			c-2.7-3-4.1-7.1-4.1-12.3v-27.9h10.1v24.8c0,3.4,0.8,6.1,2.4,7.9s3.9,2.8,6.9,2.8c2.9,0,5.3-1,7.1-2.9c1.8-1.9,2.7-4.6,2.7-8
			V1425.1z"/>
		<path class="st2" d="M1921.4,1469h-10.1v-43.8h10.1v6.9c0.7-1.1,1.5-2.1,2.4-3c0.9-0.9,1.8-1.7,3-2.5c1.1-0.7,2.4-1.3,3.7-1.7
			c1.4-0.4,2.9-0.6,4.6-0.6c5,0,8.8,1.5,11.5,4.6c2.7,3,4.1,7.1,4.1,12.3v27.9h-10.1v-24.8c0-3.4-0.8-6.1-2.4-7.9
			c-1.6-1.8-3.9-2.8-6.9-2.8c-2.9,0-5.3,1-7.1,2.9c-1.8,1.9-2.7,4.6-2.7,8V1469z"/>
		<path class="st2" d="M2028.9,1469v-7.3c-1.6,2.3-3.6,4.2-6,5.8c-2.4,1.6-5.4,2.4-8.9,2.4c-2.6,0-5.1-0.5-7.5-1.5
			c-2.4-1-4.6-2.5-6.5-4.4c-1.9-2-3.4-4.4-4.6-7.2c-1.2-2.8-1.7-6.1-1.7-9.7s0.6-6.9,1.7-9.7c1.1-2.8,2.6-5.2,4.5-7.2
			c1.9-2,4-3.4,6.5-4.4c2.5-1,5-1.5,7.6-1.5c3.6,0,6.6,0.8,8.9,2.3c2.4,1.5,4.4,3.3,6,5.4v-23.6h10.1v60.6H2028.9z M2028,1441.2
			c-0.7-1.7-1.6-3.2-2.8-4.4c-1.2-1.2-2.5-2.2-4.1-2.9c-1.5-0.7-3.1-1-4.8-1c-1.7,0-3.3,0.3-4.8,1c-1.5,0.6-2.9,1.6-4,2.8
			c-1.2,1.2-2.1,2.7-2.7,4.4c-0.7,1.7-1,3.7-1,5.9c0,2.2,0.3,4.1,1,5.9c0.7,1.7,1.6,3.2,2.7,4.4c1.2,1.2,2.5,2.2,4,2.8s3.1,1,4.8,1
			c1.7,0,3.3-0.3,4.8-1c1.5-0.7,2.9-1.6,4.1-2.9c1.2-1.2,2.1-2.7,2.8-4.4c0.7-1.7,1-3.7,1-5.8S2028.7,1443,2028,1441.2z"/>
		<path class="st2" d="M2094.9,1469h-10.1v-43.8h10.1v9.9c1.4-3.3,3.3-6,5.9-8c2.5-2,5.8-2.9,9.6-2.7v10.6h-0.6
			c-2.2,0-4.2,0.4-6.1,1.1c-1.8,0.7-3.4,1.8-4.7,3.2c-1.3,1.4-2.4,3.3-3.1,5.4c-0.7,2.2-1.1,4.7-1.1,7.6V1469z"/>
		<path class="st2" d="M2175.6,1470.2c-0.9,2.3-1.8,4.2-2.7,5.7c-0.9,1.5-2,2.8-3.2,3.8c-1.2,1-2.4,1.7-3.8,2.1
			c-1.4,0.4-3,0.7-4.7,0.7c-2.1,0-4-0.2-5.6-0.7c-1.6-0.5-3.2-1.1-4.8-2l3.4-7.5c0.9,0.5,1.9,0.9,2.9,1.2c1,0.3,2,0.5,3,0.5
			c1.4,0,2.6-0.4,3.6-1.1c0.9-0.7,1.8-2,2.7-4l-18.3-43.8h10.7l12.5,32.5l11.4-32.5h10.5L2175.6,1470.2z"/>
		<path class="st2" d="M2227.2,1469v-11.4h11v11.4H2227.2z"/>
		<path class="st2" d="M2312.6,1467.7c-2.8,1.5-6.3,2.3-10.5,2.3c-3.3,0-6.3-0.6-9-1.8c-2.8-1.2-5.2-2.8-7.2-4.9s-3.6-4.5-4.8-7.2
			c-1.1-2.7-1.7-5.7-1.7-8.8s0.6-6.1,1.7-8.9c1.1-2.8,2.7-5.2,4.8-7.3c2-2.1,4.5-3.8,7.2-5c2.8-1.2,5.8-1.8,9.1-1.8
			c4.2,0,7.6,0.7,10.3,2.1c2.7,1.4,5.1,3.2,7.2,5.5l-6.2,6.7c-1.5-1.6-3.2-2.9-4.9-3.9c-1.7-1-3.9-1.5-6.4-1.5
			c-1.8,0-3.5,0.4-5.1,1.1c-1.5,0.7-2.9,1.8-4,3c-1.1,1.3-2,2.8-2.6,4.4c-0.6,1.7-1,3.5-1,5.4c0,2,0.3,3.8,1,5.6
			c0.6,1.7,1.5,3.2,2.7,4.5c1.2,1.3,2.5,2.3,4.2,3c1.6,0.7,3.4,1.1,5.3,1.1c2.4,0,4.5-0.5,6.3-1.5c1.8-1,3.5-2.3,5.1-3.9l6.1,6
			C2317.8,1464.2,2315.3,1466.2,2312.6,1467.7z"/>
		<path class="st2" d="M2403.6,1455.9c-1.2,2.8-2.8,5.2-4.9,7.3s-4.6,3.7-7.4,4.9s-6,1.8-9.4,1.8c-3.3,0-6.4-0.6-9.3-1.8
			c-2.9-1.2-5.3-2.8-7.4-4.9c-2.1-2.1-3.7-4.5-4.9-7.2c-1.2-2.7-1.7-5.7-1.7-8.8s0.6-6.1,1.8-8.9c1.2-2.8,2.8-5.2,4.9-7.3
			c2.1-2.1,4.5-3.7,7.4-4.9c2.8-1.2,6-1.8,9.3-1.8s6.5,0.6,9.3,1.8c2.8,1.2,5.3,2.8,7.4,4.9s3.7,4.5,4.9,7.3
			c1.2,2.8,1.7,5.7,1.7,8.9S2404.8,1453.2,2403.6,1455.9z M2394.3,1441.7c-0.7-1.7-1.6-3.2-2.8-4.5c-1.2-1.3-2.6-2.3-4.2-3.1
			s-3.4-1.1-5.4-1.1c-2,0-3.8,0.4-5.4,1.1s-3,1.8-4.2,3c-1.2,1.3-2,2.8-2.6,4.4c-0.6,1.7-0.9,3.5-0.9,5.4c0,1.9,0.3,3.8,1,5.5
			c0.7,1.7,1.6,3.3,2.8,4.5c1.2,1.3,2.6,2.3,4.2,3c1.6,0.7,3.4,1.1,5.3,1.1c2,0,3.9-0.4,5.5-1.1c1.6-0.7,3-1.8,4.2-3
			c1.2-1.3,2-2.8,2.6-4.4c0.6-1.7,0.9-3.5,0.9-5.4C2395.2,1445.3,2394.9,1443.5,2394.3,1441.7z"/>
		<path class="st2" d="M2491.6,1426.4c2.4-1.4,5.3-2.1,8.6-2.1c4.8,0,8.6,1.5,11.3,4.4c2.7,2.9,4.1,7,4.1,12.4v28h-10.1v-24.8
			c0-3.5-0.8-6.1-2.3-7.9c-1.5-1.8-3.7-2.7-6.5-2.7c-2.8,0-5,0.9-6.7,2.8s-2.6,4.5-2.6,8.1v24.7h-10.1V1444c0-3.4-0.8-6-2.3-7.9
			c-1.5-1.8-3.7-2.7-6.5-2.7c-2.8,0-5.1,1-6.8,2.9c-1.7,1.9-2.6,4.6-2.6,8v24.6h-10.1v-43.8h10.1v6.7c0.7-1,1.5-2,2.3-2.8
			c0.8-0.9,1.8-1.7,2.9-2.4c1.1-0.7,2.3-1.3,3.7-1.7c1.4-0.4,2.9-0.6,4.5-0.6c3.2,0,5.8,0.7,8,2.1c2.2,1.4,3.9,3.3,5,5.7
			C2487.1,1429.7,2489.1,1427.8,2491.6,1426.4z"/>
	</g>
</g>
<circle class="st1" cx="1010.2" cy="705.5" r="12.2"/>
<circle class="st1" cx="1064.4" cy="648.8" r="20.1"/>
<circle class="st1" cx="1070" cy="802.3" r="12.2"/>
</svg>
