<?xml version="1.0" encoding="utf-8"?>
<!-- Generator: Adobe Illustrator 26.0.2, SVG Export Plug-In . SVG Version: 6.00 Build 0)  -->
<svg version="1.1" id="Layer_1" xmlns="http://www.w3.org/2000/svg" xmlns:xlink="http://www.w3.org/1999/xlink" x="0px" y="0px"
	 viewBox="0 0 3000 3000" style="enable-background:new 0 0 3000 3000;" xml:space="preserve">
<style type="text/css">
	.st0{fill:#6F162C;}
	.st1{fill:#EFB52F;}
	.st2{fill:#FFFFFF;}
	.st3{fill:#EFB730;}
	.st4{fill:#FCFDFD;}
	.st5{fill:#EEB42E;}
	.st6{fill:#FCFCFC;}
	.st7{fill:none;}
</style>
<g>
	<g>
		<path class="st0" d="M357.2,741.4c-25.9,317.9-63.4,1657,1092.8,2023.4c0,0,299.6-94.3,622.6-398.2c0,0,377.4,39.2,397.5-127.1
			c0,0,59.2-20.1,53.5-150c0,0-5.1-119.3-13.2-161.8c0,0,2.7-68.5-88.1-138.2c0,0,152.2-546.1,110.5-1035.3
			c-4.1-48.6-37.4-89.7-83.9-104.3L1563,373.9c-88.2-27.5-182.8-27.1-270.8,1.1L427.1,652.7C388.1,665.5,360.5,700.4,357.2,741.4z"
			/>
		<path class="st1" d="M1333,1351.2l31.9-100.7l-52.2-127.4c0,0,25.5-59.9,26.8-61.8c1.3-1.9,128-1.9,128-1.9l168.2-22.9l107.7,17.8
			l6.4-88.5c0,0-72.6,8.3-59.9-78.4c0,0,6.4-121.7,27.4-14.7c0,0-6.4,52.9,32.5,49.7l5.7-145.9c0,0,5.1-43.3,37.6-36.3
			c0,0,26.5,2.5,31.2,42v99.4l197.5-262.5l-236.3-97.5l-193.7,405.2l-110.2-30.6l53.5-451.7c0,0-107.5-26.9-219.8,0l51.6,452.9
			c0,0-92.4,21-124.2,33.8l-195.2-407.9l-231,102.8l296.2,388l-105.1,129.3c0,0,140.1,70.7,167.5,219.1L1333,1351.2z"/>
		<path class="st1" d="M470.2,1584.1c-59.9-270.1-56.5-603.1-56.5-603.1l396.9,119.8c0,0-338.3,110.5-250.4,458.3L470.2,1584.1z"/>
		<path class="st1" d="M1861.4,1133.9l599.1-155.8c0,0,29.6,196.8-18.2,437.6l-115.6-19.4l5.3-121.5c0,0,51.4,2.1,55.6-36.9
			l2.9-40.8c0.5-6.6-0.2-13.3-2.4-19.6c-2.7-7.9-7.9-15.7-17.3-11.4c-5.9,2.7-9.8,8.6-10.4,15l-3.5,34.5c0,0-1.3,19.3-24.5,15.6
			l-0.3-95.2c0,0,0.6-48.1-41.4-46.5c0,0-33.1,6.7-31.5,45.9l-1.9,112.4c0,0-22.6,6.4-21.7-28.3l0.6-38.2c0,0,0.3-21.2-20.2-16.4
			c0,0-14.3,3.3-13.5,35.5l0.6,54.9c0,0-1.4,34.4,54.8,37.3l-3.2,76.3L2107,1221L1861.4,1133.9z"/>
		<path class="st2" d="M2220,780.6l-27.3,67.4c-1,2.5-3,4.5-5.5,5.5l-67,26.9l67.1,24.7c2.6,0.9,4.6,2.9,5.7,5.5l27,64.2l25.2-63.6
			c1-2.6,3.1-4.6,5.7-5.6l66.8-25.5l-67.2-28.3c-2.5-1-4.4-3.1-5.4-5.6L2220,780.6z"/>
		<path class="st2" d="M1235.1,553.5l-16.6,41c-0.6,1.5-1.8,2.7-3.3,3.3l-40.7,16.3l40.8,15c1.6,0.6,2.8,1.8,3.5,3.3l16.4,39
			l15.3-38.7c0.6-1.6,1.9-2.8,3.4-3.4l40.6-15.5l-40.9-17.2c-1.5-0.6-2.7-1.9-3.3-3.4L1235.1,553.5z"/>
		<path class="st2" d="M649.5,784.4l-27.6,68.3c-1,2.5-3,4.5-5.6,5.5l-67.9,27.2l68,25c2.6,1,4.7,3,5.8,5.5l27.3,65l25.5-64.4
			c1-2.6,3.1-4.7,5.7-5.7l67.7-25.8l-68.1-28.7c-2.5-1.1-4.5-3.1-5.5-5.7L649.5,784.4z"/>
		<path class="st2" d="M955.6,918.2l-9.1,22.5c-0.3,0.8-1,1.5-1.8,1.8l-22.4,9l22.4,8.2c0.9,0.3,1.6,1,1.9,1.8l9,21.4l8.4-21.3
			c0.3-0.9,1-1.5,1.9-1.9l22.3-8.5l-22.5-9.5c-0.8-0.3-1.5-1-1.8-1.9L955.6,918.2z"/>
		<path class="st3" d="M1207.8,1851.6l-615.4,62.1l38.2,86l551.4-52.6C1182,1947.1,1195.4,1881.2,1207.8,1851.6z"/>
		<path class="st4" d="M1176.6,1999.7c0,0-1.6,30.6,0,38.5l-537.3-22.6l-8.6-15.9H1176.6z"/>
		<path class="st5" d="M1079.8,2216.9c0,0-278.1-25.5-343-39.5c0,0,174.9,303.9,626.8,508.4c0,0-241.8-155.8-355.5-438.6l66,0.3
			L1079.8,2216.9z"/>
		<path class="st6" d="M1998.1,2208.6c0,0-15.3,65.6-30.6,83.5h287.9c0,0-33.1-51.6-29.9-83.5H1998.1z"/>
		<path class="st6" d="M1739,2215c0,0,13.5,52.9,37.3,69.4l-390.9-9.6l1.9-4.5c4.9-11.6,8-24,9.3-36.5l0.5-5.4L1739,2215z"/>
		<path class="st6" d="M1235.5,2223.3l16.6,56.9h-120.4c-12.2,0-24.1-4.8-32.4-13.8c-8.6-9.3-12.5-22.1,10.1-34.2
			c6.1-3.3,12.9-5.1,19.9-5.4L1235.5,2223.3z"/>
		<g>
			<path class="st6" d="M1319.4,2280.4c-27.3,0-41.6-42.3-41.6-84.1s14.3-84.1,41.6-84.1c27.3,0,41.6,42.3,41.6,84.1
				S1346.7,2280.4,1319.4,2280.4z M1319.4,2134.7c-5.5,0-19.1,21.6-19.1,61.6c0,40,13.6,61.6,19.1,61.6c5.5,0,19.1-21.6,19.1-61.6
				C1338.5,2156.3,1324.9,2134.7,1319.4,2134.7z"/>
		</g>
		<g>
			<path class="st6" d="M1848.7,2253.7c-17.3,0-33-11.4-44.1-32.1c-9.8-18.2-15.2-42.2-15.2-67.4c0-25.3,5.4-49.2,15.2-67.4
				c11.1-20.7,26.8-32.1,44.1-32.1s33,11.4,44.1,32.1c9.8,18.2,15.2,42.2,15.2,67.4c0,25.3-5.4,49.2-15.2,67.4
				C1881.7,2242.3,1866.1,2253.7,1848.7,2253.7z M1848.7,2079.9c-16,0-33.9,31.8-33.9,74.2c0,42.5,17.9,74.2,33.9,74.2
				s33.9-31.8,33.9-74.2C1882.7,2111.6,1864.7,2079.9,1848.7,2079.9z"/>
		</g>
		<ellipse class="st1" cx="1629.9" cy="652" rx="16.8" ry="19.4"/>
		<circle class="st1" cx="1992.6" cy="925" r="13.7"/>
		<g>
			<path class="st4" d="M860.8,1780.7c-92,0-178.5-36.4-243.5-102.5c-64.9-66-100.7-153.7-100.7-246.9
				c0-93.3,35.7-180.9,100.7-246.9c65-66.1,151.5-102.5,243.5-102.5s178.5,36.4,243.5,102.5c64.9,66,100.7,153.7,100.7,246.9
				c0,93.3-35.7,180.9-100.7,246.9C1039.2,1744.3,952.8,1780.7,860.8,1780.7z M860.8,1128.3c-164.2,0-297.7,135.9-297.7,303
				s133.5,303,297.7,303c164.2,0,297.7-135.9,297.7-303S1024.9,1128.3,860.8,1128.3z"/>
		</g>
		<ellipse class="st4" cx="860.8" cy="1431.4" rx="264" ry="267.3"/>
		<circle class="st1" cx="897.6" cy="1263.1" r="44.3"/>
		<circle class="st1" cx="1027.2" cy="1382.1" r="44.3"/>
		<circle class="st1" cx="935" cy="1372" r="30.6"/>
		<path class="st1" d="M1084.5,1500.5c-18.7,78.9-67.3,121.9-113.7,145.3c-61.3,31-132.8,34.1-197.4,10.8
			c-128-46.1-142.4-167.6-142.4-167.6s55.8-12.4,93.4-53c0,0,46.5-61.2,111.3-29.9c0,0,32.9,20.2,67.5,47.4c0,0,37.1,33.7,86.1,8.2
			c8.7-4.5,18-7.7,27.7-8.7c12.3-1.3,28.3,0.1,44.2,9.9l11.6,7.8C1082.5,1477.2,1087.2,1489.1,1084.5,1500.5z"/>
		<g>
			<path class="st2" d="M2347.8,1681.8c-194.9-272-373.3-256.7-373.3-256.7c3.2-53.5-29.9-97.5-29.9-97.5
				c12.1-95.6-83.1-92.2-83.1-92.2l-26.2-29.9c52.9-16.1,20-44.6,20-44.6c-11.9-10.4-12.7-44-12.7-44
				c-13.6-87.9-76.2-57.5-76.2-57.5c-47.1-105.1-145.2-36.9-145.2-36.9c-111.5-35.7-158.6,17.8-158.6,17.8l-80.9-32.5
				c-48.4-14.7-84.1,48.4-84.1,48.4c-62.4-52.2-98.1-25.5-98.1-25.5c24.8,15.3,29.3,51.2,29.3,51.2c-33.8-11.9-78.4,12.5-78.4,12.5
				c53.5,82.8,145.2,73.9,145.2,73.9c1.9,48.4,44,79,44,79c-26.8,43.3-31.9,162.4-31.9,162.4c-44.6,101.3,35,139.5,35,139.5
				c-37.8,16.6-50.1,53.5-50.1,53.5l415.4-118.5l383.1,25.5l204.7,211.9c58.6,20.8,126.8,67.7,126.8,67.7l15.7-61.7L2347.8,1681.8z
				 M1357.7,1088.1c39.4-19.8,77.1-3.2,94,6.8c6.1,3.6,13.7,3.7,19.9,0.3l33.9-18.4c28.5-18.8,47.6-7.3,47.6-7.3
				c3.8,2.9,7.4,5,10.7,6.5c8.6,3.9,18.4,3.6,27-0.2c8.3-3.6,15.4-4.5,20.3-4.5c3.3,0,6.6,0.7,9.7,1.7c16.9,5.4,33.4-9.9,33.4-9.9
				c1-1,2-1.9,3-2.8c15.5-13.5,39.8-7.2,47.5,11.9c12.5,30.9-0.4,57.2-0.4,57.2c-27-8.5-24.4-42.5-24.4-42.5
				c-14.3-0.1-33.2,18.7-41.2,27.5c-2.5,2.7-6.3,3.6-9.7,2.4l-16-5.8c-4.4-1.6-9.2-1.3-13.4,0.7l-24.9,12c-2.3,1.1-5,1-7.2-0.4
				c-27.1-16.6-43.3-7.9-46.7-5.6c-1.3,0.9-2.7,1.6-4.1,2.3c-15.9,7.8-46.7,14.5-46.7,14.5c-17.6,21.8-48.1,44.3-61.8,53.9
				c-4.9,3.5-11.4,3.9-16.8,1.2c-24.3-12-39.9-41.6-39.9-41.6C1327.9,1099.1,1357.7,1088.1,1357.7,1088.1z M1907.6,1422.2
				c0,0-2.9,12.4-52.2,11.5l-151-3.5l-312.2,97.5c0,0-49.7,4.5-59.9-52.7c0,0-6.8-29.5,28-66.7l3.5-90.9c0,0,7.7-83.8,97.2-133.7
				c12.3-6.9,26-11,40-12.1l64.2-5.3c8.1-0.7,16.1-2.6,23.7-5.6c26.9-10.6,102.7-32.6,169.2,21.3c0,0,64.9,32.6,85.4,143.3
				c2.5,13.4,10.9,24.9,22.8,31.3l17.9,9.6C1884.4,1366.1,1930.5,1382.7,1907.6,1422.2z"/>
		</g>
		<path class="st1" d="M1670,1189c0,0,113.7,15.9,122.3,126.5c0,0,9.6,68.8-54.5,47.1C1737.8,1362.6,1767.1,1281.4,1670,1189z"/>
		<path class="st1" d="M1605,1197c0,0,110,9.6,118.1,159.9c0,0-71.3-7.6-104.9,19.1c0,0-2.1-61.2-39.9-91.3c0,0-25.1-28.9-8.1-83.2
			c0,0,57.8,48.4,56.5,116.8C1626.7,1318.3,1647.1,1255,1605,1197z"/>
		<path class="st1" d="M1534.1,1223.6l-2.1,112.1C1532,1335.7,1508.6,1275.4,1534.1,1223.6z"/>
		<path class="st1" d="M1482.7,1247.3c0,0-20.4,72.2-16.6,133.8C1466.1,1381.1,1446.6,1317.4,1482.7,1247.3z"/>
		<path class="st4" d="M2015.1,1925.5c19.3,2.1,70.4,6.7,88.2,3.8c20-3.2,22.3-8.2,22.3-8.3c0-0.1,0.3-12.6-48.5-42.5
			c-27.4-16.8-55.8-30.1-56.1-30.2l-0.7-0.3c-10.5-5.7-29.3-12-36.4-7.2c-3.8,2.6-5.1,10.6-3.7,22l0.1,0.9l0,0.9
			C1980.3,1866.7,1979.4,1916,2015.1,1925.5z"/>
		<path class="st4" d="M2022.9,1599.3c0,0,47.5,34.6,84.1,72.4c4.1,4.2,7.8,8.6,11.3,13.3c9.1,12.1,34.4,42.2,66.4,51.6
			C2184.7,1736.6,2073.6,1610.1,2022.9,1599.3z"/>
		<g>
			<path class="st7" d="M2386.9,1962.1h-164.8c-18.1,0-32.7,14.6-32.7,32.7c0,18.1,14.6,32.7,32.7,32.7h164.8
				c18.1,0,32.7-14.6,32.7-32.7C2419.6,1976.7,2404.9,1962.1,2386.9,1962.1z"/>
			<path class="st7" d="M2203.8,1916.9c0,5.7,4.7,10.4,10.4,10.4h188.6c5.7,0,10.4-4.7,10.4-10.4c0-5.7-4.7-10.4-10.4-10.4h-188.6
				C2208.5,1906.5,2203.8,1911.1,2203.8,1916.9z"/>
			<path class="st7" d="M1340.3,1906.4l-31.9,2.3c-7.1,0.5-12.4,6.7-11.9,13.7v0c0.5,7.1,6.7,12.4,13.7,11.9l31.9-2.3
				c7.1-0.5,12.4-6.7,11.9-13.7C1353.5,1911.2,1347.3,1905.9,1340.3,1906.4z"/>
			<path class="st7" d="M1643,1863.7l-44.5,3.2c-9,0.7-15.8,8.5-15.1,17.5c0.7,9,8.5,15.8,17.5,15.1l44.5-3.2
				c9-0.7,15.8-8.5,15.1-17.5S1652.1,1863,1643,1863.7z"/>
			<path class="st7" d="M2010.3,1947.5l0.7,0.2l0.7,0.1c5.6,0.6,45.5,5,74.3,5c8.1,0,15.4-0.3,20.8-1.2c9.4-1.5,38.1-6.2,41-27.4
				c2.5-18.3-15.7-38.3-59.2-64.8c-27.2-16.6-54.4-29.6-57.9-31.2c-5.3-2.8-38.8-20-59.6-5.9c-11.4,7.8-15.9,22.1-13.4,42.7
				c0,3.9,0.3,18.6,5.3,34.6C1971.2,1925.3,1987.6,1941.8,2010.3,1947.5z"/>
			<path class="st4" d="M2418.3,2090.5l64.6,2.2c2.8-43.8,1.5-105.7-13.7-181.5c-6.7-33.5-25.9-63.2-53.7-82.9
				c-31.3-22.1-71.1-43.3-133.3-73.5c-6.1-3-11.5-7.1-16-12.2c-26.6-30.4-125.3-142.3-179.4-188.2c-5.3-4.5-11.8-7.3-18.7-7.9
				c-51.6-5-282.9-27.2-358.6-26.5c-2.9,0-5.8,0.5-8.5,1.2l-391.6,110.5c-11.1,3.1-19.6,12-22.2,23.3l-60.8,263.4l-3.6,182
				L829.7,2122c0,0,107.7,21.7,409.6,33.8c0,0,7.3-102.6,78-107.7c0,0,61.2-1,75.5,115.6c0,0,217.2-18.8,331.3-39.2
				c0,0,2.2-150.1,120.6-156.7c18.8-1.1,37.3,4.5,52.1,16.1c18.6,14.5,42.6,41.5,57.3,89.7l24.3,1.1L2418.3,2090.5z M2419.6,1994.8
				c0,18.1-14.6,32.7-32.7,32.7h-164.8c-18.1,0-32.7-14.6-32.7-32.7c0-18.1,14.6-32.7,32.7-32.7h164.8
				C2404.9,1962.1,2419.6,1976.7,2419.6,1994.8z M2402.8,1906.5c5.7,0,10.4,4.7,10.4,10.4c0,5.7-4.7,10.4-10.4,10.4h-188.6
				c-5.7,0-10.4-4.7-10.4-10.4c0-5.7,4.7-10.4,10.4-10.4H2402.8z M1342.1,1932l-31.9,2.3c-7.1,0.5-13.2-4.8-13.7-11.9v0
				c-0.5-7.1,4.8-13.2,11.9-13.7l31.9-2.3c7.1-0.5,13.2,4.8,13.7,11.9C1354.5,1925.4,1349.2,1931.5,1342.1,1932z M1534.1,1801.2
				c-0.2,5.4-4.3,9.9-9.6,10.7l-201.5,31.2c-7.2,1.1-13.6-5-12.7-12.3l19.5-164.2c0.5-4.4,3.8-8,8.1-9l195.5-45.1
				c4.6-1.1,9,2.6,8.8,7.3L1534.1,1801.2z M1645.4,1896.3l-44.5,3.2c-9,0.7-16.8-6.1-17.5-15.1c-0.7-9,6.1-16.8,15.1-17.5l44.5-3.2
				c9-0.7,16.8,6.1,17.5,15.1S1654.4,1895.7,1645.4,1896.3z M1821.5,1768.4l-200.6,27.3c-8.3,1.1-15.7-5.2-15.9-13.5l-4.5-176.3
				c-0.1-4.4,2.9-8.2,7.1-9.1l77.5-17.6c3.7-0.8,7.6,0.5,10,3.5l133.3,168.7C1833.5,1757.8,1829.6,1767.3,1821.5,1768.4z
				 M1906.4,1744.2l-132.7-168.6c-4.5-5.7-0.2-14,7-13.7l280.7,12.5c4.5,0.2,8.7,2.1,11.9,5.4l159.6,168.1c3.4,3.6,0.8,9.6-4.2,9.5
				l-302.5-3.7C1918.5,1753.8,1911.2,1750.3,1906.4,1744.2z M1957.8,1864.9c-2.5-20.6,2-34.9,13.4-42.7c20.8-14.1,54.4,3,59.6,5.9
				c3.5,1.6,30.7,14.6,57.9,31.2c43.5,26.6,61.7,46.6,59.2,64.8c-2.9,21.2-31.6,25.8-41,27.4c-5.4,0.9-12.6,1.2-20.8,1.2
				c-28.9,0-68.8-4.3-74.3-5l-0.7-0.1l-0.7-0.2c-22.7-5.7-39.1-22.3-47.2-48C1958.1,1883.6,1957.8,1868.8,1957.8,1864.9z"/>
			<path class="st4" d="M2418.3,2090.5c5.4,0.2,9.2,5.2,7.9,10.4c-0.9,3.8-4.3,6.4-8.2,6.4l-370.4-2.7c-4.5,0-8,3.8-7.5,8.3v0
				c0.4,3.8,3.6,6.7,7.4,6.7l362.1,4.2c5.9,0.1,10.3,5.4,9.3,11.2l-1.1,5.9c-0.8,4.5-4.8,7.8-9.4,7.8h-415.5c-4.7,0-8.8-3.4-9.6-8.1
				l-10.5-59.4c-0.6-3.5,2.1-6.7,5.7-6.5l-24.3-1.1c6.4,20.9,11,45.9,12.7,75.5c0.5,8.2,7.2,14.6,15.3,14.6l460.3,2
				c18,0.1,33.3-13,36-30.8c1.7-11.3,3.4-25.4,4.5-42.3L2418.3,2090.5z"/>
		</g>
	</g>
</g>
<circle class="st1" cx="1794.1" cy="1125.2" r="22"/>
<circle class="st1" cx="1891.9" cy="1022.8" r="36.3"/>
<circle class="st1" cx="1902.1" cy="1300" r="22"/>
</svg>
